<?xml version="1.0" encoding="UTF-8" standalone="no"?>
<!-- Created with Inkscape (http://www.inkscape.org/) -->

<svg
   xmlns:dc="http://purl.org/dc/elements/1.1/"
   xmlns:cc="http://creativecommons.org/ns#"
   xmlns:rdf="http://www.w3.org/1999/02/22-rdf-syntax-ns#"
   xmlns:svg="http://www.w3.org/2000/svg"
   xmlns="http://www.w3.org/2000/svg"
   xmlns:sodipodi="http://sodipodi.sourceforge.net/DTD/sodipodi-0.dtd"
   xmlns:inkscape="http://www.inkscape.org/namespaces/inkscape"
   width="297mm"
   height="210mm"
   viewBox="0 0 1052.3622 744.09459"
   id="svg2"
   version="1.1"
   inkscape:version="0.91 r13725"
   sodipodi:docname="Vorlagen.svg">
  <defs
     id="defs4">
    <inkscape:path-effect
       effect="powerstroke"
       id="path-effect3575"
       is_visible="true"
       offset_points="0,1 | 0.5,1 | 1,1"
       sort_points="true"
       interpolator_type=""
       interpolator_beta="0.20779221"
       start_linecap_type="round"
       linejoin_type="round"
       miter_limit="4"
       end_linecap_type="round" />
    <inkscape:perspective
       sodipodi:type="inkscape:persp3d"
       inkscape:vp_x="785.7143 : 200.6187 : 1"
       inkscape:vp_y="0 : 1000 : 0"
       inkscape:vp_z="1052.3622 : 372.0473 : 1"
       inkscape:persp3d-origin="526.1811 : 248.03153 : 1"
       id="perspective3505" />
  </defs>
  <sodipodi:namedview
     id="base"
     pagecolor="#ffffff"
     bordercolor="#666666"
     borderopacity="1.0"
     inkscape:pageopacity="0.0"
     inkscape:pageshadow="2"
     inkscape:zoom="0.56144863"
     inkscape:cx="304.65796"
     inkscape:cy="239.36371"
     inkscape:document-units="px"
     inkscape:current-layer="layer1"
     showgrid="false"
     inkscape:window-width="1366"
     inkscape:window-height="721"
     inkscape:window-x="0"
     inkscape:window-y="0"
     inkscape:window-maximized="1"
     height="211mm"
     units="mm"
     showguides="false" />
  <metadata
     id="metadata7">
    <rdf:RDF>
      <cc:Work
         rdf:about="">
        <dc:format>image/svg+xml</dc:format>
        <dc:type
           rdf:resource="http://purl.org/dc/dcmitype/StillImage" />
        <dc:title></dc:title>
      </cc:Work>
    </rdf:RDF>
  </metadata>
  <g
     inkscape:label="Ebene 1"
     inkscape:groupmode="layer"
     id="layer1"
     transform="translate(0,-308.26761)">
    <path
       style="fill:#ff0000"
       d="m 45.52508,674.52063 c 0.0627,-0.77708 0.1704,-2.32842 0.23915,-3.44742 0.59852,-9.74109 4.38383,-20.58767 10.19597,-29.216 2.48937,-3.69556 4.18827,-5.7611 7.31178,-8.88978 3.80507,-3.81136 8.79938,-7.61753 12.73502,-9.70539 l 1.00914,-0.53535 1.21473,1.03143 c 4.69745,3.98863 11.48168,7.14201 17.97912,8.35691 3.8182,0.71393 9.90614,0.71185 13.75374,-0.005 6.3725,-1.18675 13.1781,-4.2907 17.6327,-8.04205 0.62167,-0.52353 1.25398,-1.02481 1.40513,-1.11396 0.36766,-0.21686 1.69943,0.4802 4.73118,2.47633 12.52588,8.24711 21.52548,21.13483 25.16419,36.03593 0.98173,4.0203 1.81658,10.17351 1.81714,13.39313 l 1.9e-4,1.07379 -57.65166,0 -57.65167,0 0.11415,-1.41288 z M 97.64345,624.94697 C 85.5881,622.75366 75.71807,613.89543 72.46641,602.35088 c -0.97208,-3.45122 -1.14195,-4.78828 -1.13444,-8.92938 0.006,-3.19556 0.10219,-4.39881 0.5014,-6.25925 1.36495,-6.36108 4.28493,-11.77432 8.75408,-16.22888 4.66559,-4.65033 10.67567,-7.76586 17.28206,-8.95872 2.715,-0.49023 8.65875,-0.3779 11.45864,0.21654 12.83725,2.72548 22.39003,12.28954 25.09702,25.12668 0.63922,3.03135 0.57535,9.74872 -0.12235,12.86708 -2.87767,12.8616 -12.98467,22.5592 -25.7918,24.74703 -2.61889,0.44739 -8.44676,0.45542 -10.86757,0.015 z"
       id="path3439"
       inkscape:connector-curvature="0" />
    <path
       style="fill:#cccccc"
       d="m 885.96567,717.34115 c -12.28222,-1.82327 -19.61206,-7.91088 -23.45218,-19.47763 -0.7589,-2.28589 -1.46985,-4.15616 -1.57988,-4.15616 -0.11002,0 -2.06553,0.53766 -4.34557,1.1948 -19.06051,5.49349 -38.29479,-4.31784 -36.42323,-18.57934 0.6589,-5.02091 0.78983,-4.70823 -2.25366,-5.38226 -11.92535,-2.64104 -15.4825,-14.13329 -8.30735,-26.83896 6.99843,-12.39273 22.16653,-15.78641 34.67803,-7.75881 4.07537,2.61483 4.36378,2.61938 5.72081,0.0903 5.95096,-11.09062 21.0027,-18.34101 38.07577,-18.34101 3.39945,0 3.39945,0 6.19936,-5.06106 14.73448,-26.63374 39.67493,-28.08617 52.77787,-3.07357 1.7602,3.3601 2.21459,3.8841 3.12577,3.60469 0.5864,-0.17982 2.42727,-0.74243 4.09083,-1.25024 17.93661,-5.47531 37.00716,4.14311 41.67426,21.01883 1.0742,3.88421 1.0742,3.88421 6.1656,3.64941 14.0904,-0.64982 23.9056,6.40944 26.748,19.23762 4.5086,20.34785 -13.4103,35.1833 -37.797,31.29291 -2.014,-0.32129 -2.1279,-0.26245 -2.7916,1.44209 -7.47236,19.1911 -39.1801,26.72204 -54.04609,12.83655 -1.8466,-1.7248 -1.8466,-1.7248 -3.25052,-0.31174 -10.1097,10.17555 -31.80822,17.82322 -45.00922,15.86356 z m 14.36706,-7.36917 c 5.17475,-1.07169 9.84818,-2.8685 16.04108,-6.16739 7.34884,-3.91464 9.48733,-6.29211 10.63775,-11.82657 0.22469,-1.08095 0.7284,-1.57826 1.93564,-1.91105 2.66477,-0.73458 3.82412,-0.15779 7.46232,3.71258 8.91735,9.48645 18.55881,12.0415 28.56374,7.56961 8.48462,-3.79237 16.26873,-11.93088 16.26873,-17.00945 0,-3.27725 3.60654,-4.31726 10.13941,-2.92387 6.659,1.42031 15.3068,0.40332 20.5347,-2.41489 14.0512,-7.57467 11.4036,-32.9035 -3.7901,-36.25899 -2.9669,-0.65523 -3.5162,-0.5658 -11.7608,1.91487 -5.2368,1.57568 -7.5616,-0.23904 -7.5616,-5.9025 0,-16.70551 -22.0156,-27.4425 -38.04068,-18.55241 -4.77071,2.6466 -6.92705,1.46884 -10.24487,-5.59563 -10.69735,-22.77727 -27.71538,-21.8206 -39.07596,2.19666 -3.43553,7.263 -3.0088,7.02836 -13.33144,7.33028 -18.66249,0.54583 -30.23799,7.67601 -32.34634,19.92444 -1.20721,7.01327 -4.16104,7.20546 -11.3766,0.74025 -13.83373,-12.39517 -29.65113,-6.29695 -29.73206,11.46285 -0.0374,8.1961 1.9147,9.72617 10.51256,8.24003 8.31434,-1.43713 10.61502,0.11157 6.79675,4.57523 -11.64629,13.61484 5.21709,26.49251 24.65927,18.83099 9.15173,-3.60639 11.60194,-3.01588 12.70717,3.06248 3.1458,17.3007 12.25571,22.88469 31.00133,19.00248 z m 68.28819,-59.07489 c -1.13829,-0.98055 -1.13829,-0.98055 -0.3079,-4.89229 1.92728,-9.07889 0.13252,-13.01316 -6.3834,-13.99296 -5.5106,-0.82863 -6.61059,-4.51477 -1.76175,-5.90375 10.43467,-2.98908 20.45181,9.96703 16.64298,21.52593 -1.36238,4.13449 -5.33905,5.71889 -8.18993,3.26307 z"
       id="path3489"
       inkscape:connector-curvature="0" />
    <text
       xml:space="preserve"
       style="font-style:normal;font-variant:normal;font-weight:normal;font-stretch:normal;font-size:50.20353317px;line-height:125%;font-family:Verdana;-inkscape-font-specification:'Verdana, Normal';text-align:start;letter-spacing:0px;word-spacing:0px;writing-mode:lr-tb;text-anchor:start;fill:#000000;fill-opacity:1;stroke:none;stroke-width:1px;stroke-linecap:butt;stroke-linejoin:miter;stroke-opacity:1"
       x="814.00854"
       y="673.04089"
       id="text3491"
       sodipodi:linespacing="125%"><tspan
         sodipodi:role="line"
         id="tspan3493"
         x="814.00854"
         y="673.04089">Internet</tspan></text>
    <text
       sodipodi:linespacing="125%"
       id="text3497"
       y="719.04089"
       x="47.437027"
       style="font-style:normal;font-variant:normal;font-weight:normal;font-stretch:normal;font-size:50.20353317px;line-height:125%;font-family:Verdana;-inkscape-font-specification:'Verdana, Normal';text-align:start;letter-spacing:0px;word-spacing:0px;writing-mode:lr-tb;text-anchor:start;fill:#000000;fill-opacity:1;stroke:none;stroke-width:1px;stroke-linecap:butt;stroke-linejoin:miter;stroke-opacity:1"
       xml:space="preserve"><tspan
         y="719.04089"
         x="47.437027"
         id="tspan3499"
         sodipodi:role="line">Peer</tspan></text>
    <rect
       style="opacity:1;fill:#cccccc;fill-opacity:1;fill-rule:nonzero;stroke:#000000;stroke-width:0;stroke-linecap:butt;stroke-linejoin:miter;stroke-miterlimit:4;stroke-dasharray:none;stroke-dashoffset:330.73001099;stroke-opacity:1"
       id="rect3523"
       width="160"
       height="322.85715"
       x="-962.85718"
       y="1320.9335" />
    <rect
       style="opacity:1;fill:#000000;fill-opacity:1;fill-rule:nonzero;stroke:none;stroke-width:0;stroke-linecap:butt;stroke-linejoin:miter;stroke-miterlimit:4;stroke-dasharray:none;stroke-dashoffset:330.73001099;stroke-opacity:1"
       id="rect3579"
       width="320"
       height="205.71428"
       x="-645.71436"
       y="-4.7807603" />
    <rect
       style="opacity:1;fill:#000000;fill-opacity:1;fill-rule:nonzero;stroke:none;stroke-width:0;stroke-linecap:butt;stroke-linejoin:miter;stroke-miterlimit:4;stroke-dasharray:none;stroke-dashoffset:330.73001099;stroke-opacity:1"
       id="rect3577"
       width="520"
       height="25.714285"
       x="188.57137"
       y="643.79065" />
    <path
       sodipodi:type="star"
       style="opacity:1;fill:#000000;fill-opacity:1;fill-rule:nonzero;stroke:none;stroke-width:0;stroke-linecap:butt;stroke-linejoin:miter;stroke-miterlimit:4;stroke-dasharray:none;stroke-dashoffset:330.73001099;stroke-opacity:1"
       id="path3581"
       sodipodi:sides="3"
       sodipodi:cx="657.14301"
       sodipodi:cy="638.07648"
       sodipodi:r1="131.55273"
       sodipodi:r2="65.776367"
       sodipodi:arg1="-0.043450895"
       sodipodi:arg2="1.0037467"
       inkscape:flatsided="false"
       inkscape:rounded="0"
       inkscape:randomized="0"
       d="M 788.57157,632.36219 692.4745,693.55815 596.37744,754.7541 591.42872,640.93362 586.48,527.11314 687.52579,579.73767 Z"
       inkscape:transform-center-x="-13.972461"
       inkscape:transform-center-y="-0.29792722"
       transform="matrix(0.42463623,0.02092297,-0.01857467,0.37697701,458.82774,404.50176)" />
    <text
       xml:space="preserve"
       style="font-style:normal;font-variant:normal;font-weight:normal;font-stretch:normal;font-size:50.20353317px;line-height:125%;font-family:Verdana;-inkscape-font-specification:'Verdana, Normal';text-align:start;letter-spacing:0px;word-spacing:0px;writing-mode:lr-tb;text-anchor:start;fill:#000000;fill-opacity:1;stroke:none;stroke-width:1px;stroke-linecap:butt;stroke-linejoin:miter;stroke-opacity:1"
       x="183.437"
       y="639.3266"
       id="text3587"
       sodipodi:linespacing="125%"><tspan
         sodipodi:role="line"
         id="tspan3589"
         x="183.437"
         y="639.3266">www.cats.com</tspan></text>
    <g
       id="g3619"
       transform="matrix(0.50006328,0,0,0.50006328,32.752868,230.55324)">
      <rect
         style="opacity:1;fill:#000000;fill-opacity:1;fill-rule:nonzero;stroke:none;stroke-width:0;stroke-linecap:butt;stroke-linejoin:miter;stroke-miterlimit:4;stroke-dasharray:none;stroke-dashoffset:330.73001099;stroke-opacity:1"
         id="rect3605"
         width="371.42856"
         height="25.714285"
         x="314.28568"
         y="929.505" />
      <path
         sodipodi:type="star"
         style="opacity:1;fill:#000000;fill-opacity:1;fill-rule:nonzero;stroke:none;stroke-width:0;stroke-linecap:butt;stroke-linejoin:miter;stroke-miterlimit:4;stroke-dasharray:none;stroke-dashoffset:330.73001099;stroke-opacity:1"
         id="path3607"
         sodipodi:sides="3"
         sodipodi:cx="657.14301"
         sodipodi:cy="638.07648"
         sodipodi:r1="131.55273"
         sodipodi:r2="65.776367"
         sodipodi:arg1="-0.043450895"
         sodipodi:arg2="1.0037467"
         inkscape:flatsided="false"
         inkscape:rounded="0"
         inkscape:randomized="0"
         d="M 788.57157,632.36219 692.4745,693.55815 596.37744,754.7541 591.42872,640.93362 586.48,527.11314 687.52579,579.73767 Z"
         inkscape:transform-center-x="-13.972461"
         inkscape:transform-center-y="-0.29792722"
         transform="matrix(0.42463623,0.02092297,-0.01857467,0.37697701,438.54205,690.2161)" />
      <text
         xml:space="preserve"
         style="font-style:normal;font-variant:normal;font-weight:normal;font-stretch:normal;font-size:50.20353317px;line-height:125%;font-family:Verdana;-inkscape-font-specification:'Verdana, Normal';text-align:start;letter-spacing:0px;word-spacing:0px;writing-mode:lr-tb;text-anchor:start;fill:#000000;fill-opacity:1;stroke:none;stroke-width:1px;stroke-linecap:butt;stroke-linejoin:miter;stroke-opacity:1"
         x="309.15131"
         y="925.04095"
         id="text3609"
         sodipodi:linespacing="125%"><tspan
           sodipodi:role="line"
           id="tspan3611"
           x="309.15131"
           y="925.04095">www.cats.com</tspan></text>
    </g>
    <g
       id="g4487"
       transform="translate(-36.971644,328.712)">
      <rect
         y="191.56651"
         x="457.60135"
         height="182.59576"
         width="136.59003"
         id="rect3629"
         style="opacity:1;fill:#ffffff;fill-opacity:1;fill-rule:nonzero;stroke:#ff0000;stroke-width:6.47850561;stroke-linecap:butt;stroke-linejoin:miter;stroke-miterlimit:4;stroke-dasharray:none;stroke-dashoffset:330.73001099;stroke-opacity:1" />
      <text
         sodipodi:linespacing="125%"
         id="text4431"
         y="415.98077"
         x="454.40036"
         style="font-style:normal;font-variant:normal;font-weight:normal;font-stretch:normal;font-size:50.20353317px;line-height:125%;font-family:Verdana;-inkscape-font-specification:'Verdana, Normal';text-align:start;letter-spacing:0px;word-spacing:0px;writing-mode:lr-tb;text-anchor:start;fill:#000000;fill-opacity:1;stroke:none;stroke-width:1px;stroke-linecap:butt;stroke-linejoin:miter;stroke-opacity:1"
         xml:space="preserve"><tspan
           y="415.98077"
           x="454.40036"
           id="tspan4433"
           sodipodi:role="line">Proxy</tspan></text>
      <text
         xml:space="preserve"
         style="font-style:normal;font-variant:normal;font-weight:normal;font-stretch:normal;font-size:17.72062111px;line-height:125%;font-family:Verdana;-inkscape-font-specification:'Verdana, Normal';text-align:start;letter-spacing:0px;word-spacing:0px;writing-mode:lr-tb;text-anchor:start;fill:#000000;fill-opacity:1;stroke:none;stroke-width:1px;stroke-linecap:butt;stroke-linejoin:miter;stroke-opacity:1"
         x="460.80209"
         y="209.92543"
         id="text4435"
         sodipodi:linespacing="125%"><tspan
           sodipodi:role="line"
           id="tspan4437"
           x="460.80209"
           y="209.92543">Title:</tspan><tspan
           id="tspan4445"
           sodipodi:role="line"
           x="460.80209"
           y="232.0762">Cats</tspan><tspan
           id="tspan4439"
           sodipodi:role="line"
           x="460.80209"
           y="254.22699" /></text>
      <text
         xml:space="preserve"
         style="font-style:normal;font-variant:normal;font-weight:normal;font-stretch:normal;font-size:17.72062111px;line-height:125%;font-family:Verdana;-inkscape-font-specification:'Verdana, Normal';text-align:start;letter-spacing:0px;word-spacing:0px;writing-mode:lr-tb;text-anchor:start;fill:#000000;fill-opacity:1;stroke:none;stroke-width:1px;stroke-linecap:butt;stroke-linejoin:miter;stroke-opacity:1"
         x="460.7095"
         y="270.18463"
         id="text4435-5"
         sodipodi:linespacing="125%"><tspan
           sodipodi:role="line"
           id="tspan4437-2"
           x="460.7095"
           y="270.18463">URL:</tspan><tspan
           id="tspan4445-8"
           sodipodi:role="line"
           x="460.7095"
           y="292.33542">www.cats.com</tspan><tspan
           id="tspan4439-6"
           sodipodi:role="line"
           x="460.7095"
           y="314.48618" /></text>
      <text
         xml:space="preserve"
         style="font-style:normal;font-variant:normal;font-weight:normal;font-stretch:normal;font-size:17.72062111px;line-height:125%;font-family:Verdana;-inkscape-font-specification:'Verdana, Normal';text-align:start;letter-spacing:0px;word-spacing:0px;writing-mode:lr-tb;text-anchor:start;fill:#000000;fill-opacity:1;stroke:none;stroke-width:1px;stroke-linecap:butt;stroke-linejoin:miter;stroke-opacity:1"
         x="461.9689"
         y="326.8591"
         id="text4435-2"
         sodipodi:linespacing="125%"><tspan
           sodipodi:role="line"
           id="tspan4437-5"
           x="461.9689"
           y="326.8591">Index:</tspan><tspan
           id="tspan4445-3"
           sodipodi:role="line"
           x="461.9689"
           y="349.00989">cat, meow, …</tspan><tspan
           id="tspan4439-0"
           sodipodi:role="line"
           x="461.9689"
           y="371.16064" /></text>
    </g>
    <g
       id="g4587"
       transform="translate(-37.782987,-113.34897)">
      <rect
         y="808.56946"
         x="620.63129"
         height="12.858769"
         width="185.73778"
         id="rect4546"
         style="opacity:1;fill:#000000;fill-opacity:1;fill-rule:nonzero;stroke:none;stroke-width:0;stroke-linecap:butt;stroke-linejoin:miter;stroke-miterlimit:4;stroke-dasharray:none;stroke-dashoffset:330.73001099;stroke-opacity:1" />
      <path
         transform="matrix(0.21234499,0.01046281,-0.00928851,0.18851236,676.76736,688.90989)"
         inkscape:transform-center-y="-0.29792722"
         inkscape:transform-center-x="-13.972461"
         d="M 788.57157,632.36219 692.4745,693.55815 596.37744,754.7541 591.42872,640.93362 586.48,527.11314 687.52579,579.73767 Z"
         inkscape:randomized="0"
         inkscape:rounded="0"
         inkscape:flatsided="false"
         sodipodi:arg2="1.0037467"
         sodipodi:arg1="-0.043450895"
         sodipodi:r2="65.776367"
         sodipodi:r1="131.55273"
         sodipodi:cy="638.07648"
         sodipodi:cx="657.14301"
         sodipodi:sides="3"
         id="path4548"
         style="opacity:1;fill:#000000;fill-opacity:1;fill-rule:nonzero;stroke:none;stroke-width:0;stroke-linecap:butt;stroke-linejoin:miter;stroke-miterlimit:4;stroke-dasharray:none;stroke-dashoffset:330.73001099;stroke-opacity:1"
         sodipodi:type="star" />
      <path
         sodipodi:type="star"
         style="opacity:1;fill:#000000;fill-opacity:1;fill-rule:nonzero;stroke:none;stroke-width:0;stroke-linecap:butt;stroke-linejoin:miter;stroke-miterlimit:4;stroke-dasharray:none;stroke-dashoffset:330.73001099;stroke-opacity:1"
         id="path4585"
         sodipodi:sides="3"
         sodipodi:cx="657.14301"
         sodipodi:cy="638.07648"
         sodipodi:r1="131.55273"
         sodipodi:r2="65.776367"
         sodipodi:arg1="-0.043450895"
         sodipodi:arg2="1.0037467"
         inkscape:flatsided="false"
         inkscape:rounded="0"
         inkscape:randomized="0"
         d="M 788.57157,632.36219 692.4745,693.55815 596.37744,754.7541 591.42872,640.93362 586.48,527.11314 687.52579,579.73767 Z"
         inkscape:transform-center-x="13.295142"
         inkscape:transform-center-y="-0.28349034"
         transform="matrix(-0.20205147,0.00995562,0.00883825,0.17937413,760.22281,695.06685)" />
    </g>
    <path
       style="fill:#ff0000"
       d="m -312.23589,827.94976 c 0.0627,-0.77708 0.1704,-2.32842 0.23915,-3.44742 0.59852,-9.74109 4.38383,-20.58768 10.19597,-29.21601 2.48937,-3.69556 4.18827,-5.7611 7.31178,-8.88978 3.80507,-3.81136 8.79938,-7.61753 12.73502,-9.70539 l 1.00914,-0.53535 1.21473,1.03143 c 4.69745,3.98863 11.48168,7.14201 17.97912,8.35691 3.8182,0.71393 9.90615,0.71185 13.75375,-0.005 6.3725,-1.18675 13.1781,-4.2907 17.6327,-8.04205 0.62167,-0.52353 1.25398,-1.02481 1.40513,-1.11396 0.36766,-0.21686 1.69943,0.4802 4.73118,2.47633 12.52588,8.24711 21.52548,21.13483 25.16419,36.03594 0.98173,4.0203 1.81658,10.17351 1.81714,13.39313 l 1.9e-4,1.07379 -57.65166,0 -57.65168,0 0.11415,-1.41288 z m 52.11837,-49.57367 c -12.05535,-2.19331 -21.92538,-11.05154 -25.17704,-22.59609 -0.97208,-3.45123 -1.14195,-4.78829 -1.13444,-8.92939 0.006,-3.19556 0.10219,-4.39881 0.5014,-6.25925 1.36495,-6.36108 4.28493,-11.77432 8.75408,-16.22888 4.66559,-4.65033 10.67567,-7.76586 17.28206,-8.95872 2.71501,-0.49023 8.65876,-0.3779 11.45865,0.21654 12.83725,2.72548 22.39003,12.28954 25.09702,25.12668 0.63922,3.03135 0.57535,9.74872 -0.12235,12.86708 -2.87767,12.86161 -12.98467,22.55921 -25.7918,24.74704 -2.61889,0.44739 -8.44677,0.45542 -10.86758,0.015 z"
       id="path3439-5"
       inkscape:connector-curvature="0" />
    <rect
       style="opacity:1;fill:#ffffff;fill-opacity:1;fill-rule:nonzero;stroke:#ff0000;stroke-width:4.70868015;stroke-linecap:butt;stroke-linejoin:miter;stroke-miterlimit:4;stroke-dasharray:none;stroke-dashoffset:330.73001099;stroke-opacity:1"
       id="rect3629-7"
       width="99.275787"
       height="132.71349"
       x="-172.58449"
       y="697.17169" />
    <path
       inkscape:connector-curvature="0"
       id="path4792"
       d="m -0.54215,1071.9614 c 0.0627,-0.777 0.1704,-2.3284 0.23915,-3.4474 0.59852,-9.7411 4.38383,-20.5877 10.19597,-29.216 2.48937,-3.6955 4.18827,-5.7611 7.31178,-8.8898 3.80507,-3.8113 8.79938,-7.6175 12.73502,-9.7054 l 1.00914,-0.5353 1.21473,1.0314 c 4.69745,3.9887 11.48168,7.142 17.97912,8.3569 3.8182,0.714 9.90615,0.7119 13.75375,-0.01 6.3725,-1.1867 13.1781,-4.2907 17.6327,-8.042 0.62167,-0.5236 1.25398,-1.0248 1.40513,-1.114 0.36766,-0.2168 1.69943,0.4802 4.73118,2.4763 12.52588,8.2472 21.52548,21.1349 25.16419,36.036 0.98173,4.0203 1.81658,10.1735 1.81714,13.3931 l 1.9e-4,1.0738 -57.65166,0 -57.65168,0 0.11415,-1.4129 z m 52.11837,-49.5736 c -12.05535,-2.1933 -21.92538,-11.0516 -25.17704,-22.59612 -0.97208,-3.45123 -1.14195,-4.78829 -1.13444,-8.92939 0.006,-3.19556 0.10219,-4.39881 0.5014,-6.25925 1.36495,-6.36108 4.28493,-11.77432 8.75408,-16.22888 4.66559,-4.65033 10.67567,-7.76586 17.28206,-8.95872 2.71501,-0.49023 8.65876,-0.3779 11.45865,0.21654 12.83725,2.72548 22.39003,12.28954 25.09702,25.12668 0.63922,3.03135 0.57535,9.74872 -0.12235,12.86708 -2.87767,12.86166 -12.98467,22.55926 -25.7918,24.74706 -2.61889,0.4474 -8.44677,0.4554 -10.86758,0.015 z"
       style="fill:#00ff00" />
    <rect
       y="941.18335"
       x="139.10925"
       height="132.71349"
       width="99.275787"
       id="rect4794"
       style="opacity:1;fill:none;fill-opacity:1;fill-rule:nonzero;stroke:#00ff00;stroke-width:4.70868015;stroke-linecap:butt;stroke-linejoin:miter;stroke-miterlimit:4;stroke-dasharray:none;stroke-dashoffset:330.73001099;stroke-opacity:1" />
    <text
       sodipodi:linespacing="125%"
       id="text4800"
       y="745.23669"
       x="-166.04758"
       style="font-style:normal;font-variant:normal;font-weight:normal;font-stretch:normal;font-size:30.26367569px;line-height:125%;font-family:Verdana;-inkscape-font-specification:'Verdana, Normal';text-align:start;letter-spacing:0px;word-spacing:0px;writing-mode:lr-tb;text-anchor:start;fill:#000000;fill-opacity:1;stroke:none;stroke-width:1px;stroke-linecap:butt;stroke-linejoin:miter;stroke-opacity:1"
       xml:space="preserve"><tspan
         y="745.23669"
         x="-166.04758"
         id="tspan4802"
         sodipodi:role="line">Index</tspan></text>
    <text
       xml:space="preserve"
       style="font-style:normal;font-variant:normal;font-weight:normal;font-stretch:normal;font-size:30.26367569px;line-height:125%;font-family:Verdana;-inkscape-font-specification:'Verdana, Normal';text-align:start;letter-spacing:0px;word-spacing:0px;writing-mode:lr-tb;text-anchor:start;fill:#000000;fill-opacity:1;stroke:none;stroke-width:1px;stroke-linecap:butt;stroke-linejoin:miter;stroke-opacity:1"
       x="143.86505"
       y="1014.1839"
       id="text4804"
       sodipodi:linespacing="125%"><tspan
         sodipodi:role="line"
         id="tspan4806"
         x="143.86505"
         y="1014.1839">Index</tspan></text>
    <path
       inkscape:connector-curvature="0"
       id="path4816"
       d="m 526.66554,998.93601 c 0.0627,-0.777 0.1704,-2.3284 0.23915,-3.4474 0.59852,-9.7411 4.38383,-20.5877 10.19597,-29.216 2.48937,-3.6955 4.18827,-5.7611 7.31178,-8.8898 3.80507,-3.8113 8.79938,-7.6175 12.73502,-9.7054 l 1.00914,-0.5353 1.21473,1.0314 c 4.69745,3.9887 11.48168,7.142 17.97912,8.3569 3.8182,0.714 9.90615,0.7119 13.75375,-0.01 6.3725,-1.1867 13.1781,-4.2907 17.6327,-8.042 0.62167,-0.5236 1.25398,-1.0248 1.40513,-1.114 0.36766,-0.2168 1.69943,0.4802 4.73118,2.4763 12.52588,8.2472 21.52548,21.1349 25.16419,36.036 0.98173,4.0203 1.81658,10.1735 1.81714,13.3931 l 1.9e-4,1.07379 -57.65166,0 -57.65168,0 0.11415,-1.41289 z m 52.11837,-49.5736 c -12.05535,-2.1933 -21.92538,-11.0516 -25.17704,-22.59612 -0.97208,-3.45123 -1.14195,-4.78829 -1.13444,-8.92939 0.006,-3.19556 0.10219,-4.39881 0.5014,-6.25925 1.36495,-6.36108 4.28493,-11.77432 8.75408,-16.22888 4.66559,-4.65033 10.67567,-7.76586 17.28206,-8.95872 2.71501,-0.49023 8.65876,-0.3779 11.45865,0.21654 12.83725,2.72548 22.39003,12.28954 25.09702,25.12668 0.63922,3.03135 0.57535,9.74872 -0.12235,12.86708 -2.87767,12.86166 -12.98467,22.55926 -25.7918,24.74706 -2.61889,0.4474 -8.44677,0.4554 -10.86758,0.015 z"
       style="fill:#0000ff" />
    <rect
       y="868.15796"
       x="666.31696"
       height="132.71349"
       width="99.275787"
       id="rect4818"
       style="opacity:1;fill:none;fill-opacity:1;fill-rule:nonzero;stroke:#0000ff;stroke-width:4.70868015;stroke-linecap:butt;stroke-linejoin:miter;stroke-miterlimit:4;stroke-dasharray:none;stroke-dashoffset:330.73001099;stroke-opacity:1" />
    <text
       xml:space="preserve"
       style="font-style:normal;font-variant:normal;font-weight:normal;font-stretch:normal;font-size:30.26367569px;line-height:125%;font-family:Verdana;-inkscape-font-specification:'Verdana, Normal';text-align:start;letter-spacing:0px;word-spacing:0px;writing-mode:lr-tb;text-anchor:start;fill:#000000;fill-opacity:1;stroke:none;stroke-width:1px;stroke-linecap:butt;stroke-linejoin:miter;stroke-opacity:1"
       x="671.07275"
       y="941.15851"
       id="text4820"
       sodipodi:linespacing="125%"><tspan
         sodipodi:role="line"
         id="tspan4822"
         x="671.07275"
         y="941.15851">Index</tspan></text>
    <path
       style="fill:#ffff00"
       d="m -281.95707,1244.7288 c 0.0627,-0.777 0.1704,-2.3284 0.23915,-3.4474 0.59852,-9.7411 4.38383,-20.5877 10.19597,-29.216 2.48937,-3.6955 4.18827,-5.7611 7.31178,-8.8898 3.80507,-3.8113 8.79938,-7.6175 12.73502,-9.7054 l 1.00914,-0.5353 1.21473,1.0314 c 4.69745,3.9887 11.48168,7.142 17.97912,8.3569 3.8182,0.714 9.90615,0.7119 13.75375,-0.01 6.3725,-1.1867 13.1781,-4.2907 17.6327,-8.042 0.62167,-0.5236 1.25398,-1.0248 1.40513,-1.114 0.36766,-0.2168 1.69943,0.4802 4.73118,2.4763 12.52588,8.2472 21.52548,21.1349 25.16419,36.036 0.98173,4.0203 1.81658,10.1735 1.81714,13.3931 l 1.9e-4,1.0738 -57.65166,0 -57.65168,0 0.11415,-1.4129 z m 52.11837,-49.5736 c -12.05535,-2.1933 -21.92538,-11.0516 -25.17704,-22.5961 -0.97208,-3.4513 -1.14195,-4.7883 -1.13444,-8.9294 0.006,-3.1956 0.10219,-4.3988 0.5014,-6.2593 1.36495,-6.361 4.28493,-11.7743 8.75408,-16.2288 4.66559,-4.6504 10.67567,-7.7659 17.28206,-8.9588 2.71501,-0.4902 8.65876,-0.3779 11.45865,0.2166 12.83725,2.7255 22.39003,12.2895 25.09702,25.1267 0.63922,3.0313 0.57535,9.7487 -0.12235,12.867 -2.87767,12.8617 -12.98467,22.5593 -25.7918,24.7471 -2.61889,0.4474 -8.44677,0.4554 -10.86758,0.015 z"
       id="path4824"
       inkscape:connector-curvature="0" />
    <rect
       style="opacity:1;fill:none;fill-opacity:1;fill-rule:nonzero;stroke:#ffff00;stroke-width:4.70868015;stroke-linecap:butt;stroke-linejoin:miter;stroke-miterlimit:4;stroke-dasharray:none;stroke-dashoffset:330.73001099;stroke-opacity:1"
       id="rect4826"
       width="99.275787"
       height="132.71349"
       x="-142.30566"
       y="1113.9508" />
    <text
       sodipodi:linespacing="125%"
       id="text4828"
       y="1186.9513"
       x="-137.54987"
       style="font-style:normal;font-variant:normal;font-weight:normal;font-stretch:normal;font-size:30.26367569px;line-height:125%;font-family:Verdana;-inkscape-font-specification:'Verdana, Normal';text-align:start;letter-spacing:0px;word-spacing:0px;writing-mode:lr-tb;text-anchor:start;fill:#000000;fill-opacity:1;stroke:none;stroke-width:1px;stroke-linecap:butt;stroke-linejoin:miter;stroke-opacity:1"
       xml:space="preserve"><tspan
         y="1186.9513"
         x="-137.54987"
         id="tspan4830"
         sodipodi:role="line">Index</tspan></text>
  </g>
</svg>
